PathFileType	4	(X/Y/Z)	C:/Users/beibeiliu/ov580/test_trc/capture2\sequence.30_training_dense_right.trc
DataRate	CameraRate	NumFrames	NumMarkers	Units	OrigDataRate	OrigDataStartFrame	OrigNumFrames
120	120	21	19	mm	120	151	400
Frame#	Time	ThumbCMC			ThumbMCP			ThumbIP			ThumbTip			IndexMCP			IndexPIP			IndexTip			MiddleMCP			MiddlePIP			MiddleTip			RingMCP			RingPIP			RingTip			PinkyMCP			PinkyPIP			PinkyTip			BackHand1			BackHand2			BackHand3	
		X0	Y0	Z0	X1	Y1	Z1	X2	Y2	Z2	X3	Y3	Z3	X4	Y4	Z4	X5	Y5	Z5	X6	Y6	Z6	X7	Y7	Z7	X8	Y8	Z8	X9	Y9	Z9	X10	Y10	Z10	X11	Y11	Z11	X12	Y12	Z12	X13	Y13	Z13	X14	Y14	Z14	X15	Y15	Z15	X16	Y16	Z16	X17	Y17	Z17	X18	Y18	Z18	
150	1.25	134.451	77.2139	31.681	124.255	89.4356	4.41355	119.295	92.5711	-21.3117	110.904	80.3398	-45.0189	137.656	61.5757	-43.031	118.33	67.3521	-66.8801	87.5598	80.3492	-49.4073	124.768	43.952	-50.1585	96.3891	54.7843	-63.6154	77.0414	66.7488	-34.1583	110.575	30.5348	-42.6892	81.3867	46.0037	-47.0428	78.9956	57.519	-18.0083	102.053	18.4695	-31.5309	77.2319	31.9679	-36.6896	77.1096	48.2231	-5.51976	138.13	19.0313	3.03375	140.884	17.7374	33.0014	150.815	46.1251	17.6952	
151	1.25833	136.648	78.1964	29.2345	124.087	92.6797	6.1209	118.092	89.3388	-22.4487	106.837	77.073	-40.772	139.523	62.888	-41.8075	120.791	64.5038	-66.1207	87.8004	78.4234	-57.9249	125.689	43.4262	-46.8927	101.101	55.1381	-66.8267	74.9482	72.0388	-49.0382	105.092	30.7808	-45.3756	78.7633	47.8724	-44.3008	76.8635	58.103	-15.2314	96.8876	16.3895	-30.7049	74.0807	38.0447	-30.3908	80.2504	49.9199	0.123656	136.806	19.4423	4.72265	138.695	13.9634	37.7929	150.984	45.9967	18.9657	
152	1.26667	135.502	74.6986	31.6095	123.495	92.0346	8.57953	114.986	92.8675	-24.2584	104.665	77.0284	-40.3003	139.066	59.8098	-40.4211	123.414	66.9343	-66.872	92.7835	78.6738	-65.9737	124.204	44.416	-50.7084	102.459	58.4099	-66.9695	71.3747	71.5673	-56.2791	105.238	33.7004	-39.6671	81.9634	51.7392	-42.1066	78.8708	63.8132	-10.8416	95.8691	22.8959	-27.367	72.0613	42.9239	-21.6688	81.6469	52.4247	3.85715	134.444	14.0484	6.18829	138.376	18.5879	39.1791	151.505	46.0697	22.3043	
153	1.275	137.224	75.2274	35.1236	122.783	91.4989	8.03177	112.436	89.6082	-22.8356	99.5588	74.9342	-38.3129	142.585	64.1202	-41.8272	126.73	69.6769	-66.617	97.4963	80.0602	-71.6564	127.509	46.762	-44.3451	101.486	59.0544	-66.7334	73.9616	79.4196	-62.1111	103.24	39.9704	-39.837	79.3297	57.5011	-33.5144	80.0448	64.839	-1.4122	93.2612	26.5201	-26.3773	74.434	47.8718	-16.5291	90.0066	54.9157	9.74823	133.074	15.3553	5.68623	138.029	14.2629	35.281	151.229	42.4457	23.5934	
154	1.28333	135.945	73.0593	35.0586	119.93	89.7199	8.51271	107.366	86.964	-18.4352	95.7102	70.7297	-36.3069	141.315	63.3925	-42.5401	128.124	74.7888	-66.0547	100.211	84.4668	-72.9613	125.233	47.127	-45.2542	105.18	59.5502	-64.2495	75.7225	81.7908	-64.6252	102.683	39.5562	-35.0637	77.5341	57.5372	-29.0182	83.347	68.6404	2.96536	90.9516	27.5706	-22.9194	74.689	49.1692	-12.7866	88.8404	54.3872	16.0421	132.135	17.7214	8.70537	134.377	12.0548	38.573	153.752	42.151	22.793	
155	1.29167	135.35	70.9343	36.5499	118.156	88.5677	9.48955	105.658	86.4857	-18.9529	95.1556	68.1746	-32.846	141.142	63.2268	-40.2907	124.937	75.1901	-63.1073	104.749	87.127	-72.2024	125.766	50.5781	-45.7637	101.563	62.2015	-63.7091	74.9084	83.5483	-62.9026	99.9903	38.8453	-31.6247	77.1794	61.1986	-22.9021	86.8368	66.8155	10.2293	90.7167	27.7849	-21.2275	75.7577	51.5715	-5.77115	95.501	53.3204	19.8751	130.403	13.3616	5.27824	132.991	11.4677	38.9631	150.997	39.3193	24.8745	
156	1.3	135.874	72.7582	34.6957	116.503	86.394	12.336	105.175	84.4867	-15.3851	95.9214	71.4399	-34.4464	140.516	66.5673	-39.4322	123.076	78.9205	-62.0624	100.327	89.8255	-68.572	122.4	49.3277	-44.1997	105.763	65.1381	-59.6644	71.6136	83.2274	-58.6678	99.4619	45.6285	-32.9995	79.9917	65.0241	-17.2407	90.712	65.9536	13.3872	89.3435	29.5511	-19.5357	78.6074	52.464	-5.33902	97.9349	50.9196	23.6395	130.806	15.2761	5.05681	134.708	13.4224	39.2129	152.894	37.3834	23.1231	
157	1.30833	135.083	73.9951	37.0261	116.981	84.6269	6.21152	106.299	82.0315	-20.6331	97.0522	65.4181	-36.5589	137.14	65.2931	-36.3308	120.889	81.6157	-58.1439	92.1631	93.8202	-63.3697	121.217	52.4055	-45.1455	96.8928	65.899	-58.1587	68.4289	83.6888	-53.2685	96.7168	41.5121	-29.402	78.9474	62.9715	-16.9042	89.5686	61.6558	16.7663	88.2726	29.6648	-18.8468	77.9656	52.0127	-2.71362	95.2406	49.8456	23.8746	132.258	14.0072	10.0583	138.016	12.6994	40.0808	153.39	41.4981	23.4994	
158	1.31667	134.358	72.5073	31.5103	116.308	85.9845	9.13151	105.456	79.7937	-19.1031	96.0475	64.8339	-39.4501	132.291	65.6616	-39.3893	116.115	81.116	-54.9521	84.9686	91.4941	-58.1611	118.541	48.4365	-42.3545	95.4721	64.0991	-56.7065	65.9288	81.792	-48.7914	96.4082	42.6986	-28.8408	78.845	62.1771	-14.5989	96.4142	62.48	17.7671	86.2333	29.1142	-17.9454	78.2231	52.4636	1.05389	95.159	46.0912	26.6126	130.409	14.1778	4.86167	135.672	14.6422	37.4527	152.448	41.9977	21.9225	
159	1.325	134.284	73.4156	35.5934	115.294	80.8636	8.82085	105.349	79.286	-15.6096	95.1267	61.8053	-37.9027	129.035	68.3178	-38.9278	110.389	79.3534	-52.605	81.0889	94.6664	-53.4757	117.939	48.8681	-40.7508	88.3636	65.6784	-55.5054	65.2513	81.2694	-46.4536	96.8612	43.5445	-27.1208	76.7558	63.0221	-11.1629	91.8959	60.1586	18.1096	88.8419	29.6043	-15.9616	75.1309	50.4061	4.05869	98.7664	48.1672	24.3344	128.709	12.6846	9.20886	132.652	10.5079	37.158	149.735	36.9149	19.9247	
160	1.33333	132	69.0932	32.3625	114.147	85.6204	8.93644	103.951	82.3911	-18.4439	94.1412	63.0703	-38.2872	127.4	68.9318	-37.3655	105.888	80.1576	-50.5452	74.4724	94.2997	-48.9933	115.32	52.1199	-43.3854	89.9999	68.2573	-54.7222	64.3968	81.2551	-44.5075	92.5822	45.2814	-28.5885	76.5543	63.3538	-11.4672	92.8248	59.9196	19.0611	84.095	30.2977	-15.1947	75.3228	50.0493	1.77128	94.7506	46.8145	26.3439	129.961	13.9656	9.91148	132.953	9.92504	36.4004	150.572	40.7557	22.8466	
161	1.34167	131.858	71.5926	36.5624	113.233	84.4978	8.62469	102.77	79.0355	-20.0023	93.7298	65.1205	-33.9653	125.647	67.7629	-35.9736	101.163	79.4451	-48.9599	71.8304	94.4407	-43.7105	114.171	52.5689	-42.4361	88.9547	61.9998	-52.8127	64.0941	84.328	-43.6416	91.6433	42.9358	-26.4152	73.1656	62.1914	-10.5582	85.361	62.8529	18.4073	83.4067	31.4993	-13.404	71.6546	48.2005	6.25591	93.5696	46.1719	30.0179	129.688	16.4726	7.15846	135.251	11.435	41.7142	151.013	40.0411	24.175	
162	1.35	131.812	71.4965	35.1413	113.453	86.4072	10.0829	103.063	81	-15.3192	92.5708	64.9156	-31.3939	123.232	66.9253	-33.3176	99.1039	79.2131	-47.1076	74.9481	94.7909	-42.8964	111.639	51.215	-41.3585	88.6385	66.3081	-52.7311	59.9197	86.3167	-38.7449	91.1997	45.4727	-25.8364	72.3999	63.5679	-11.8047	86.9568	64.0004	20.849	81.1889	27.4144	-12.6748	72.3147	50.288	7.0249	95.5648	47.8505	30.1122	125.634	13.6952	6.69183	133.472	9.61521	39.8473	148.384	42.983	21.2345	
163	1.35833	130.607	74.5882	38.3455	112.17	84.7297	9.42595	100.419	78.9508	-15.8003	90.2914	64.4454	-31.6607	119.802	73.2374	-36.4338	96.6572	82.7	-45.4506	66.7664	94.615	-37.1786	112.63	52.4786	-40.007	84.2394	63.5094	-51.2827	60.9884	83.755	-38.7731	88.5535	43.1843	-25.9535	68.1315	60.8499	-9.48727	79.411	64.0297	20.7315	80.9839	30.5711	-11.842	72.698	51.1017	6.7548	96.1995	50.874	31.8068	128.077	16.0296	8.62002	133.833	11.4273	37.9288	146.805	42.3436	25.9171	
164	1.36667	127.986	72.1154	37.2313	110.024	85.7095	11.1107	99.6136	80.3642	-17.4547	90.2321	65.6374	-29.7101	119.094	68.6446	-35.1386	93.9689	86.4027	-45.4669	69.4531	94.8359	-37.46	110.006	53.5792	-40.9508	84.2021	67.0259	-50.5077	56.0159	83.2328	-35.6161	88.4618	43.022	-27.051	67.8227	60.2258	-12.5275	77.4675	66.3914	19.8411	80.7931	28.4284	-13.4062	67.7224	47.6607	6.78572	94.3091	51.5165	31.1917	126.957	13.9086	8.73024	132.393	11.0582	42.6572	145.626	42.5871	26.4211	
165	1.375	127.502	72.2577	38.3531	108.604	86.2288	10.4487	98.4578	82.2667	-20.2311	89.3323	62.3107	-32.1781	120.976	71.6002	-34.4696	93.7204	85.5009	-47.3827	69.5159	94.9682	-39.625	109.231	47.9116	-39.1779	80.9763	64.4959	-51.5892	54.2124	80.049	-39.3348	89.0272	38.3404	-29.9089	69.4549	58.8499	-23.2468	68.4882	67.5262	11.5637	81.9011	31.9802	-16.5027	68.2016	48.81	-2.01133	86.8687	53.2475	28.141	128.825	16.2959	11.5058	130.741	12.0599	39.4078	145.046	43.2251	24.611	
166	1.38333	127.348	73.3407	32.2426	109.294	85.1458	7.92057	98.7204	84.3193	-16.5737	90.5058	64.5188	-31.0857	120.65	67.293	-37.2112	95.7644	81.6987	-50.5991	70.9098	93.3657	-45.7074	112.431	51.0795	-43.967	87.6884	64.9825	-56.9772	57.7195	82.5678	-49.2979	95.6157	35.8332	-34.7576	67.8	53.2071	-33.9655	59.7196	69.7338	-7.81058	87.4812	26.1277	-18.9371	65.6111	45.7502	-8.8657	79.7359	57.5617	15.8583	127.962	18.7006	7.61274	130.722	14.1881	37.5197	146.99	43.3821	23.2572	
167	1.39167	128.846	77.0813	32.3784	109.78	87.6726	7.15387	97.3024	81.2235	-23.3729	87.4686	63.4944	-32.096	126.95	70.2127	-40.8889	105.962	80.3984	-55.6854	73.7475	90.9311	-54.9762	117.513	49.4043	-45.6086	95.0162	58.6999	-61.7158	62.854	75.5514	-66.0628	100.848	32.544	-38.6165	75.1462	50.8738	-49.4135	55.0895	68.2661	-33.7449	86.3503	23.9707	-23.007	68.6137	45.9747	-18.3436	74.8857	59.3638	10.1779	127.558	17.3393	6.83328	131.551	12.879	38.6243	147.546	41.1796	21.4656	
168	1.4	128.669	78.1482	32.8814	106.705	85.4482	5.80137	94.39	80.0962	-17.8816	85.4077	60.5809	-31.0668	131.642	67.5454	-39.1896	108.174	77.589	-59.7306	83.9669	88.5545	-64.855	121.439	47.478	-45.0205	101.926	57.2335	-64.8089	73.5545	70.609	-75.0814	102.912	29.9008	-40.8329	78.2871	46.3547	-57.3601	58.1975	68.8216	-53.0431	84.4735	24.9651	-27.2129	70.8506	48.6333	-21.444	72.4748	63.684	5.61485	129.261	15.3443	8.12133	132.823	14.8634	35.2265	146.766	40.5874	23.8814	
169	1.40833	128.616	75.8907	31.7729	104.185	87.2897	4.95351	90.9588	80.136	-18.1666	79.9512	59.0392	-35.5424	130.265	65.0355	-44.0112	115.995	76.9178	-59.9501	92.8845	88.1394	-70.0883	123.593	47.617	-45.7616	103.695	59.5545	-68.5348	78.5463	72.1537	-80.9769	106.18	32.0141	-40.6804	83.1175	46.5365	-58.9745	61.3087	68.2962	-58.5293	86.0222	26.1983	-27.5895	70.0814	46.095	-22.3443	79.8167	65.5377	6.01726	129.764	14.2101	5.94457	132.942	17.1366	40.1761	147.361	41.4886	24.0956	
170	1.41667	127.381	73.5312	27.7446	100.915	85.7713	4.31289	87.507	76.5701	-23.2243	81.3625	55.6729	-31.6452	134.247	64.8635	-40.3386	118.01	74.9707	-59.5596	90.3108	88.3959	-72.92	122.261	45.2592	-46.1583	104.3	59.8837	-68.8279	78.5684	71.38	-81.8081	109.129	33.7174	-41.0708	87.7	44.1993	-56.8648	61.571	67.0272	-55.2669	89.3112	26.8698	-25.8133	73.2929	51.3374	-17.3926	84.1087	61.3689	12.8219	128.928	15.5944	5.87571	134.129	15.4023	38.1439	147.516	40.098	24.7727	
